<svg width="70" height="69" viewBox="0 0 70 69" fill="none" xmlns="http://www.w3.org/2000/svg">
<path d="M35 6.46875C29.3756 6.46875 23.8775 8.11275 19.201 11.1929C14.5245 14.273 10.8796 18.6509 8.72719 23.7729C6.57482 28.8949 6.01166 34.5311 7.10893 39.9686C8.2062 45.4062 10.9146 50.4008 14.8917 54.3211C18.8687 58.2413 23.9358 60.911 29.4521 61.9926C34.9685 63.0742 40.6863 62.5191 45.8826 60.3975C51.0788 58.2759 55.5202 54.683 58.6449 50.0733C61.7697 45.4636 63.4375 40.0441 63.4375 34.5C63.4296 27.0681 60.4309 19.9428 55.0996 14.6876C49.7682 9.4324 42.5397 6.4766 35 6.46875ZM35 58.2188C30.2409 58.2188 25.5887 56.8277 21.6316 54.2214C17.6745 51.6152 14.5904 47.9108 12.7692 43.5768C10.9479 39.2427 10.4714 34.4737 11.3999 29.8727C12.3283 25.2717 14.6201 21.0454 17.9853 17.7283C21.3505 14.4112 25.638 12.1522 30.3057 11.237C34.9733 10.3218 39.8115 10.7915 44.2083 12.5867C48.6052 14.3819 52.3632 17.422 55.0073 21.3226C57.6513 25.2231 59.0625 29.8089 59.0625 34.5C59.0553 40.7884 56.5178 46.8172 52.0068 51.2638C47.4958 55.7104 41.3796 58.2116 35 58.2188ZM32.8125 36.6562V21.5625C32.8125 20.9906 33.043 20.4422 33.4532 20.0378C33.8635 19.6334 34.4199 19.4062 35 19.4062C35.5802 19.4062 36.1366 19.6334 36.5468 20.0378C36.957 20.4422 37.1875 20.9906 37.1875 21.5625V36.6562C37.1875 37.2281 36.957 37.7766 36.5468 38.181C36.1366 38.5853 35.5802 38.8125 35 38.8125C34.4199 38.8125 33.8635 38.5853 33.4532 38.181C33.043 37.7766 32.8125 37.2281 32.8125 36.6562ZM38.2813 46.3594C38.2813 46.9991 38.0888 47.6244 37.7283 48.1563C37.3677 48.6882 36.8553 49.1027 36.2557 49.3475C35.6561 49.5924 34.9964 49.6564 34.3599 49.5316C33.7234 49.4068 33.1387 49.0988 32.6798 48.6464C32.2209 48.1941 31.9084 47.6178 31.7818 46.9904C31.6552 46.363 31.7202 45.7126 31.9685 45.1216C32.2169 44.5306 32.6374 44.0255 33.177 43.6701C33.7166 43.3147 34.351 43.125 35 43.125C35.8703 43.125 36.7049 43.4658 37.3202 44.0723C37.9356 44.6789 38.2813 45.5016 38.2813 46.3594Z" fill="#F3A218"/>
</svg>
