<svg width="20" height="20" viewBox="0 0 20 20" fill="none" xmlns="http://www.w3.org/2000/svg">
<path d="M10.0004 6.24966C9.25871 6.24966 8.53369 6.46959 7.917 6.88165C7.30032 7.2937 6.81967 7.87937 6.53584 8.5646C6.25202 9.24982 6.17775 10.0038 6.32245 10.7312C6.46714 11.4587 6.8243 12.1269 7.34874 12.6513C7.87319 13.1758 8.54138 13.5329 9.2688 13.6776C9.99623 13.8223 10.7502 13.748 11.4355 13.4642C12.1207 13.1804 12.7063 12.6997 13.1184 12.083C13.5305 11.4664 13.7504 10.7413 13.7504 9.99966C13.7494 9.00542 13.3539 8.05219 12.6509 7.34915C11.9479 6.64611 10.9946 6.25069 10.0004 6.24966ZM10.0004 12.4997C9.50594 12.4997 9.02259 12.353 8.61147 12.0783C8.20034 11.8036 7.87991 11.4132 7.69069 10.9564C7.50147 10.4996 7.45197 9.99689 7.54843 9.51193C7.64489 9.02698 7.88299 8.58152 8.23263 8.23189C8.58226 7.88226 9.02771 7.64416 9.51267 7.5477C9.99762 7.45123 10.5003 7.50074 10.9571 7.68996C11.4139 7.87918 11.8044 8.19961 12.0791 8.61073C12.3538 9.02186 12.5004 9.50521 12.5004 9.99966C12.5004 10.6627 12.237 11.2986 11.7682 11.7674C11.2993 12.2363 10.6634 12.4997 10.0004 12.4997ZM18.5895 8.37544C18.572 8.28743 18.5359 8.2042 18.4835 8.1314C18.431 8.05861 18.3635 7.99795 18.2855 7.95357L15.9551 6.62544L15.9457 3.99888C15.9454 3.90842 15.9255 3.8191 15.8873 3.73709C15.8492 3.65508 15.7936 3.58234 15.7246 3.52388C14.8792 2.8088 13.9057 2.2608 12.8559 1.90903C12.7732 1.88105 12.6856 1.87069 12.5986 1.87863C12.5117 1.88657 12.4274 1.91263 12.3512 1.95513L10.0004 3.26919L7.64727 1.95278C7.57098 1.91005 7.48658 1.88379 7.39951 1.87572C7.31244 1.86764 7.22464 1.87793 7.1418 1.90591C6.0927 2.26025 5.12031 2.81033 4.27617 3.527C4.20724 3.58538 4.15178 3.658 4.11361 3.73986C4.07545 3.82173 4.05548 3.9109 4.05508 4.00122L4.04336 6.63013L1.71289 7.95825C1.63493 8.00264 1.56743 8.06329 1.51499 8.13609C1.46255 8.20889 1.4264 8.29212 1.40899 8.38013C1.1957 9.45191 1.1957 10.5552 1.40899 11.627C1.4264 11.715 1.46255 11.7982 1.51499 11.871C1.56743 11.9438 1.63493 12.0045 1.71289 12.0489L4.04336 13.377L4.05274 16.0036C4.05302 16.094 4.07294 16.1833 4.11111 16.2654C4.14928 16.3474 4.2048 16.4201 4.27383 16.4786C5.1192 17.1936 6.0927 17.7416 7.14258 18.0934C7.22526 18.1214 7.31288 18.1318 7.39981 18.1238C7.48673 18.1159 7.57103 18.0898 7.64727 18.0473L10.0004 16.7301L12.3535 18.0465C12.4466 18.0984 12.5516 18.1253 12.6582 18.1247C12.7265 18.1246 12.7943 18.1136 12.859 18.0918C13.908 17.738 14.8804 17.1884 15.7246 16.4723C15.7935 16.4139 15.849 16.3413 15.8872 16.2595C15.9253 16.1776 15.9453 16.0884 15.9457 15.9981L15.9574 13.3692L18.2879 12.0411C18.3659 11.9967 18.4334 11.936 18.4858 11.8632C18.5382 11.7904 18.5744 11.7072 18.5918 11.6192C18.8039 10.5483 18.8031 9.44606 18.5895 8.37544ZM17.4176 11.1028L15.1855 12.3723C15.0878 12.4279 15.0068 12.5089 14.9512 12.6067C14.9059 12.6848 14.8582 12.7676 14.8098 12.8458C14.7478 12.9443 14.7147 13.0583 14.7145 13.1747L14.7027 15.6942C14.1028 16.1653 13.4344 16.5421 12.7207 16.8114L10.4691 15.5567C10.3757 15.505 10.2705 15.4781 10.1637 15.4786H10.1488C10.0543 15.4786 9.95899 15.4786 9.86446 15.4786C9.75265 15.4758 9.64211 15.5027 9.54414 15.5567L7.29102 16.8145C6.57579 16.5473 5.90557 16.1724 5.30352 15.7028L5.29492 13.1872C5.29454 13.0705 5.26152 12.9563 5.19961 12.8575C5.15117 12.7793 5.10352 12.7012 5.05899 12.6184C5.00377 12.5191 4.92281 12.4365 4.82461 12.3793L2.59024 11.1067C2.47461 10.3753 2.47461 9.63028 2.59024 8.89888L4.81836 7.627C4.91616 7.5714 4.99713 7.49042 5.05274 7.39263C5.09805 7.3145 5.14571 7.23169 5.19414 7.15357C5.25615 7.05505 5.28917 6.94107 5.28945 6.82466L5.30117 4.30513C5.90112 3.83399 6.5695 3.45725 7.28321 3.18794L9.53164 4.44263C9.6295 4.49687 9.74012 4.52385 9.85196 4.52075C9.94649 4.52075 10.0418 4.52075 10.1363 4.52075C10.2481 4.52355 10.3587 4.49659 10.4566 4.44263L12.7098 3.18482C13.425 3.45206 14.0952 3.82696 14.6973 4.29653L14.7059 6.81216C14.7062 6.9288 14.7393 7.043 14.8012 7.14185C14.8496 7.21997 14.8973 7.2981 14.9418 7.38091C14.997 7.48022 15.078 7.5628 15.1762 7.61997L17.4105 8.89263C17.5277 9.62459 17.529 10.3704 17.4145 11.1028H17.4176Z" fill="#667185"/>
</svg>
