<svg width="70" height="70" viewBox="0 0 70 70" fill="none" xmlns="http://www.w3.org/2000/svg">
<path d="M35 6.5625C19.2517 6.5625 6.5625 19.2517 6.5625 35C6.5625 50.7483 19.2517 63.4375 35 63.4375C50.7483 63.4375 63.4375 50.7483 63.4375 35C63.4375 31.9409 63.0273 28.8904 61.9336 26.0449L58.3789 29.5312C58.8147 31.283 59.0625 33.0347 59.0625 35C59.0625 48.3472 48.3472 59.0625 35 59.0625C21.6528 59.0625 10.9375 48.3472 10.9375 35C10.9375 21.6528 21.6528 10.9375 35 10.9375C41.5625 10.9375 47.4585 13.5522 51.6113 17.7051L54.6875 14.6289C49.6545 9.59595 42.6562 6.5625 35 6.5625ZM59.6777 15.9277L35 40.6055L25.6348 31.2402L22.4902 34.3848L33.4277 45.3223L35 46.8262L36.5723 45.3223L62.8223 19.0723L59.6777 15.9277Z" fill="#17C653"/>
</svg>
