<svg width="678" height="281" viewBox="0 0 678 281" fill="none" xmlns="http://www.w3.org/2000/svg">
<g clip-path="url(#clip0_21_1578)">
<line x1="16.7441" y1="33.9326" x2="661.744" y2="33.9326" stroke="#E4E7EC" stroke-linecap="round" stroke-dasharray="4 4"/>
<line x1="16.7441" y1="75.4668" x2="661.744" y2="75.4668" stroke="#E4E7EC" stroke-linecap="round" stroke-dasharray="4 4"/>
<line x1="16.7441" y1="117" x2="661.744" y2="117" stroke="#E4E7EC" stroke-linecap="round" stroke-dasharray="4 4"/>
<line x1="16.7441" y1="158.533" x2="661.744" y2="158.533" stroke="#E4E7EC" stroke-linecap="round" stroke-dasharray="4 4"/>
<line x1="16.7441" y1="200.067" x2="661.744" y2="200.067" stroke="#E4E7EC" stroke-linecap="round" stroke-dasharray="4 4"/>
<line x1="16.7441" y1="240.007" x2="661.744" y2="240.007" stroke="#E4E7EC" stroke-linecap="round" stroke-dasharray="4 4"/>
<path d="M-12 195.243L97.0778 108.657C99.5462 106.698 102.794 106.017 105.841 106.819L204.733 132.859C207.752 133.654 210.97 132.993 213.431 131.072L273.941 83.8471C275.699 82.4754 277.864 81.7304 280.094 81.7304H328.7C331.204 81.7304 333.618 80.7904 335.463 79.0964L367.541 49.6429C369.519 47.8267 372.145 46.8824 374.827 47.0226L474.117 52.2134C475.951 52.3093 477.723 52.9083 479.239 53.9447L535.904 92.6861C537.566 93.8229 539.533 94.4311 541.547 94.4311H570.77C573.028 94.4311 575.22 93.6665 576.989 92.2618L646.487 37.0657C648.256 35.6611 650.448 34.8965 652.706 34.8965H666" stroke="#F8285A"/>
<path d="M-11.9697 196.856L50.379 143.592C53.079 141.285 56.7997 140.584 60.1544 141.748L112.731 160.003C116.389 161.273 120.451 160.317 123.159 157.549L193.559 85.5891C196.78 82.2971 201.833 81.6304 205.797 83.9743L274.666 124.693C278.302 126.843 282.896 126.476 286.145 123.777L387.475 39.6096C390.457 37.1325 394.602 36.6022 398.112 38.2489L474.618 74.1442C476.031 74.8073 477.27 75.792 478.234 77.0196L512.497 120.634C517.221 126.647 526.671 125.349 529.599 118.286L559.579 45.9647C561.875 40.426 568.495 38.1389 573.721 41.0792L634.567 75.3176C639.211 77.9306 645.088 76.4435 647.93 71.9362L666 43.278" stroke="#17C653"/>
</g>
<defs>
<clipPath id="clip0_21_1578">
<rect width="654" height="257" fill="white" transform="translate(12 12)"/>
</clipPath>
</defs>
</svg>
