<svg width="20" height="20" viewBox="0 0 20 20" fill="none" xmlns="http://www.w3.org/2000/svg">
<path d="M19.1252 11.7493C19.0596 11.7986 18.9849 11.8344 18.9053 11.8548C18.8258 11.8751 18.7431 11.8797 18.6618 11.868C18.5806 11.8564 18.5024 11.8289 18.4318 11.7871C18.3612 11.7453 18.2995 11.69 18.2502 11.6243C17.8735 11.118 17.3832 10.7071 16.8187 10.4249C16.2542 10.1426 15.6313 9.99688 15.0002 9.99933C14.8773 9.99931 14.7572 9.96307 14.6547 9.89512C14.5523 9.82717 14.4722 9.73053 14.4245 9.61729C14.392 9.5404 14.3753 9.45779 14.3753 9.37433C14.3753 9.29087 14.392 9.20825 14.4245 9.13136C14.4722 9.01812 14.5523 8.92148 14.6547 8.85353C14.7572 8.78558 14.8773 8.74934 15.0002 8.74933C15.3509 8.74929 15.6946 8.65092 15.9921 8.46537C16.2897 8.27983 16.5293 8.01455 16.6836 7.69967C16.838 7.38479 16.901 7.03293 16.8654 6.68406C16.8298 6.33519 16.6971 6.00329 16.4823 5.72606C16.2676 5.44883 15.9794 5.23739 15.6505 5.11574C15.3216 4.9941 14.9651 4.96713 14.6217 5.03791C14.2782 5.10868 13.9615 5.27435 13.7074 5.51612C13.4534 5.75788 13.2723 6.06603 13.1846 6.40558C13.1641 6.48509 13.1281 6.55978 13.0787 6.62538C13.0293 6.69099 12.9675 6.74623 12.8968 6.78794C12.8261 6.82966 12.7478 6.85703 12.6665 6.8685C12.5852 6.87997 12.5024 6.87531 12.4229 6.85479C12.3434 6.83428 12.2687 6.7983 12.2031 6.74891C12.1375 6.69953 12.0822 6.6377 12.0405 6.56697C11.9988 6.49624 11.9714 6.41798 11.96 6.33667C11.9485 6.25536 11.9532 6.17259 11.9737 6.09308C12.0954 5.62223 12.3253 5.18628 12.6451 4.81991C12.9649 4.45355 13.3658 4.16688 13.8159 3.98272C14.266 3.79857 14.7529 3.722 15.2378 3.75912C15.7227 3.79623 16.1922 3.94601 16.609 4.19652C17.0259 4.44704 17.3785 4.79138 17.6388 5.20215C17.8991 5.61292 18.06 6.07878 18.1086 6.56267C18.1572 7.04655 18.0922 7.5351 17.9188 7.98944C17.7454 8.44378 17.4683 8.85138 17.1096 9.17979C17.9595 9.54776 18.6982 10.1317 19.2526 10.8735C19.3018 10.9394 19.3376 11.0143 19.3578 11.0939C19.3781 11.1736 19.3824 11.2565 19.3706 11.3379C19.3588 11.4192 19.331 11.4974 19.2889 11.568C19.2468 11.6386 19.1912 11.7002 19.1252 11.7493ZM14.9159 16.5618C14.9611 16.633 14.9914 16.7125 15.0051 16.7957C15.0188 16.8789 15.0155 16.9639 14.9955 17.0458C14.9754 17.1277 14.939 17.2047 14.8884 17.2721C14.8379 17.3395 14.7742 17.396 14.7012 17.4382C14.6282 17.4804 14.5475 17.5074 14.4638 17.5176C14.3801 17.5277 14.2952 17.5209 14.2143 17.4974C14.1333 17.4739 14.058 17.4343 13.9927 17.3809C13.9275 17.3275 13.8737 17.2615 13.8346 17.1868C13.4409 16.5202 12.8802 15.9677 12.2078 15.5839C11.5353 15.2 10.7745 14.9982 10.0002 14.9982C9.22599 14.9982 8.46513 15.2 7.79272 15.5839C7.1203 15.9677 6.55958 16.5202 6.16586 17.1868C6.12679 17.2615 6.07301 17.3275 6.00777 17.3809C5.94252 17.4343 5.86715 17.4739 5.7862 17.4974C5.70524 17.5209 5.62037 17.5277 5.53669 17.5176C5.45302 17.5074 5.37226 17.4804 5.29928 17.4382C5.2263 17.396 5.16261 17.3395 5.11204 17.2721C5.06147 17.2047 5.02506 17.1277 5.005 17.0458C4.98495 16.9639 4.98166 16.8789 4.99535 16.7957C5.00903 16.7125 5.03939 16.633 5.08461 16.5618C5.69055 15.5207 6.61445 14.7014 7.72055 14.2243C7.09815 13.7478 6.64073 13.0882 6.41258 12.3383C6.18443 11.5883 6.19703 10.7857 6.44861 10.0433C6.70018 9.3009 7.17808 8.65599 7.81513 8.19923C8.45219 7.74247 9.21636 7.49682 10.0002 7.49682C10.7841 7.49682 11.5483 7.74247 12.1853 8.19923C12.8224 8.65599 13.3003 9.3009 13.5519 10.0433C13.8034 10.7857 13.816 11.5883 13.5879 12.3383C13.3597 13.0882 12.9023 13.7478 12.2799 14.2243C13.386 14.7014 14.3099 15.5207 14.9159 16.5618ZM10.0002 13.7493C10.4947 13.7493 10.978 13.6027 11.3892 13.328C11.8003 13.0533 12.1207 12.6628 12.3099 12.206C12.4992 11.7492 12.5487 11.2466 12.4522 10.7616C12.3557 10.2766 12.1176 9.83119 11.768 9.48156C11.4184 9.13193 10.9729 8.89383 10.488 8.79736C10.003 8.7009 9.50034 8.75041 9.04353 8.93963C8.58671 9.12885 8.19627 9.44928 7.92156 9.8604C7.64686 10.2715 7.50024 10.7549 7.50024 11.2493C7.50024 11.9124 7.76363 12.5483 8.23247 13.0171C8.70131 13.4859 9.3372 13.7493 10.0002 13.7493ZM5.62524 9.37433C5.62524 9.20857 5.55939 9.04959 5.44218 8.93238C5.32497 8.81517 5.166 8.74933 5.00024 8.74933C4.64956 8.74929 4.30591 8.65092 4.00834 8.46537C3.71076 8.27983 3.47119 8.01455 3.31682 7.69967C3.16246 7.38479 3.09949 7.03293 3.13508 6.68406C3.17066 6.33519 3.30337 6.00329 3.51813 5.72606C3.73289 5.44883 4.02109 5.23739 4.35 5.11574C4.67891 4.9941 5.03534 4.96713 5.3788 5.03791C5.72227 5.10868 6.039 5.27435 6.29303 5.51612C6.54706 5.75788 6.72819 6.06603 6.81586 6.40558C6.8573 6.56616 6.96083 6.7037 7.10368 6.78794C7.24653 6.87219 7.417 6.89623 7.57758 6.85479C7.73816 6.81335 7.8757 6.70982 7.95995 6.56697C8.04419 6.42412 8.06824 6.25366 8.0268 6.09308C7.90511 5.62223 7.67522 5.18628 7.3554 4.81991C7.03558 4.45355 6.63468 4.16688 6.18458 3.98272C5.73447 3.79857 5.2476 3.722 4.7627 3.75912C4.2778 3.79623 3.80826 3.94601 3.39143 4.19652C2.9746 4.44704 2.62199 4.79138 2.36166 5.20215C2.10133 5.61292 1.94046 6.07878 1.89185 6.56267C1.84325 7.04655 1.90825 7.5351 2.08168 7.98944C2.25511 8.44378 2.53219 8.85138 2.89086 9.17979C2.04186 9.54811 1.30392 10.132 0.750237 10.8735C0.650677 11.0062 0.607874 11.1729 0.631242 11.337C0.654611 11.5012 0.742238 11.6494 0.874846 11.7489C1.00745 11.8485 1.17418 11.8913 1.33835 11.8679C1.50252 11.8446 1.65068 11.7569 1.75024 11.6243C2.12695 11.118 2.61728 10.7071 3.18177 10.4249C3.74625 10.1426 4.36912 9.99688 5.00024 9.99933C5.166 9.99933 5.32497 9.93348 5.44218 9.81627C5.55939 9.69906 5.62524 9.54009 5.62524 9.37433Z" fill="white"/>
</svg>
