<svg width="93" height="94" viewBox="0 0 93 94" fill="none" xmlns="http://www.w3.org/2000/svg">
<path d="M75.5625 11.75H29.0625C27.5209 11.75 26.0425 12.369 24.9524 13.4707C23.8624 14.5725 23.25 16.0669 23.25 17.625V23.5H17.4375C15.8959 23.5 14.4175 24.119 13.3274 25.2207C12.2374 26.3225 11.625 27.8169 11.625 29.375V76.375C11.625 77.9331 12.2374 79.4275 13.3274 80.5293C14.4175 81.631 15.8959 82.25 17.4375 82.25H63.9375C65.4791 82.25 66.9575 81.631 68.0476 80.5293C69.1376 79.4275 69.75 77.9331 69.75 76.375V70.5H75.5625C77.1041 70.5 78.5825 69.881 79.6726 68.7793C80.7626 67.6775 81.375 66.1831 81.375 64.625V17.625C81.375 16.0669 80.7626 14.5725 79.6726 13.4707C78.5825 12.369 77.1041 11.75 75.5625 11.75ZM29.0625 17.625H75.5625V43.1005L69.4957 36.9684C68.4058 35.8675 66.9279 35.2491 65.387 35.2491C63.8461 35.2491 62.3682 35.8675 61.2783 36.9684L33.9196 64.625H29.0625V17.625ZM63.9375 76.375H17.4375V29.375H23.25V64.625C23.25 66.1831 23.8624 67.6775 24.9524 68.7793C26.0425 69.881 27.5209 70.5 29.0625 70.5H63.9375V76.375ZM37.7812 32.3125C37.7812 31.1505 38.1221 30.0147 38.7608 29.0485C39.3995 28.0824 40.3073 27.3294 41.3694 26.8847C42.4315 26.44 43.6002 26.3237 44.7277 26.5504C45.8552 26.7771 46.8909 27.3366 47.7038 28.1582C48.5167 28.9799 49.0703 30.0267 49.2946 31.1663C49.5188 32.306 49.4037 33.4872 48.9638 34.5608C48.5239 35.6343 47.7789 36.5518 46.823 37.1974C45.8671 37.8429 44.7434 38.1875 43.5938 38.1875C42.0522 38.1875 40.5737 37.5685 39.4837 36.4668C38.3936 35.365 37.7812 33.8706 37.7812 32.3125Z" fill="#D0D5DD"/>
</svg>
