<svg width="20" height="20" viewBox="0 0 20 20" fill="none" xmlns="http://www.w3.org/2000/svg">
<path d="M15 15.6253L6.875 15.6253C6.70924 15.6253 6.55027 15.5595 6.43306 15.4423C6.31585 15.3251 6.25 15.1661 6.25 15.0003C6.25 14.8346 6.31585 14.6756 6.43306 14.5584C6.55027 14.4412 6.70924 14.3753 6.875 14.3753L13.4914 14.3753L4.55781 5.44254C4.44054 5.32526 4.37465 5.1662 4.37465 5.00035C4.37465 4.8345 4.44054 4.67544 4.55781 4.55816C4.67509 4.44088 4.83415 4.375 5 4.375C5.16585 4.375 5.32491 4.44088 5.44219 4.55816L14.375 13.4918L14.375 6.87535C14.375 6.70959 14.4408 6.55062 14.5581 6.43341C14.6753 6.3162 14.8342 6.25035 15 6.25035C15.1658 6.25035 15.3247 6.3162 15.4419 6.43341C15.5592 6.55062 15.625 6.70959 15.625 6.87535L15.625 15.0003C15.625 15.1661 15.5592 15.3251 15.4419 15.4423C15.3247 15.5595 15.1658 15.6253 15 15.6253Z" fill="#D42620"/>
</svg>
